<svg id="Capa_1" enable-background="new 0 0 512 512" height="512" viewBox="0 0 512 512" width="512" xmlns="http://www.w3.org/2000/svg"><g><path d="m420.341 421.397h-11.599v-163.15c0-84.222-68.52-152.742-152.742-152.742s-152.742 68.519-152.742 152.742v163.149h-11.599c-16.542 0-30 13.458-30 30v45c0 8.284 6.716 15 15 15h358.682c8.284 0 15-6.716 15-15v-45c0-16.541-13.458-29.999-30-29.999zm-287.083-163.15c0-32.633 12.809-63.415 36.068-86.673 23.259-23.259 54.04-36.068 86.674-36.068s63.415 12.809 86.674 36.068 36.068 54.04 36.068 86.673v163.149h-107.742v-77.163c21.943-6.487 38.006-26.813 38.006-50.831 0-29.228-23.778-53.006-53.006-53.006s-53.006 23.778-53.006 53.006c0 24.018 16.063 44.344 38.006 50.831v77.163h-107.742zm122.742 58.161c-12.686 0-23.006-10.32-23.006-23.006s10.32-23.006 23.006-23.006c12.685 0 23.006 10.32 23.006 23.006s-10.321 23.006-23.006 23.006zm164.341 164.989h-328.682v-30h328.682z"/><path d="m394.235 131.911c3.838 0 7.678-1.465 10.606-4.393l31.751-31.75c5.858-5.858 5.858-15.355 0-21.213-5.858-5.857-15.355-5.858-21.213 0l-31.751 31.75c-5.858 5.857-5.858 15.355 0 21.213 2.93 2.929 6.768 4.393 10.607 4.393z"/><path d="m107.158 128.371c2.929 2.929 6.768 4.394 10.606 4.394 3.839 0 7.678-1.464 10.606-4.394 5.858-5.858 5.858-15.355 0-21.213l-31.75-31.751c-5.857-5.858-15.355-5.858-21.213 0s-5.858 15.355 0 21.213z"/><path d="m74.902 255.397c0-8.284-6.716-15-15-15h-44.902c-8.284 0-15 6.716-15 15s6.716 15 15 15h44.902c8.284 0 15-6.716 15-15z"/><path d="m497 240.397h-44.902c-8.284 0-15 6.716-15 15s6.716 15 15 15h44.902c8.284 0 15-6.716 15-15s-6.716-15-15-15z"/><path d="m256 75.506c8.284 0 15-6.716 15-15v-44.903c0-8.284-6.716-15-15-15s-15 6.716-15 15v44.902c0 8.285 6.716 15.001 15 15.001z"/></g></svg>