<?xml version="1.0" encoding="UTF-8"?>
<!DOCTYPE svg PUBLIC "-//W3C//DTD SVG 1.1//EN" "http://www.w3.org/Graphics/SVG/1.1/DTD/svg11.dtd">
<!-- Creator: CorelDRAW 2020 (64-Bit) -->
<svg xmlns="http://www.w3.org/2000/svg" xml:space="preserve" width="127mm" height="135.034mm" version="1.1" style="shape-rendering:geometricPrecision; text-rendering:geometricPrecision; image-rendering:optimizeQuality; fill-rule:evenodd; clip-rule:evenodd"
viewBox="0 0 12700 13503.4"
 xmlns:xlink="http://www.w3.org/1999/xlink"
 xmlns:xodm="http://www.corel.com/coreldraw/odm/2003">
 <defs>
  <style type="text/css">
   <![CDATA[
    .fil0 {fill:black}
   ]]>
  </style>
 </defs>
 <g id="Слой_x0020_1">
  <metadata id="CorelCorpID_0Corel-Layer"/>
  <g id="_2098718316464">
   <g>
    <path class="fil0" d="M4515.73 2581.14c382.4,100.8 567.88,390.03 564.86,856.29l13.04 6296.33 213.2 159.7c197.75,173.09 401.76,374.6 477.33,651.14 135.41,151.09 166.95,669.43 132.51,909.7 -41.19,287.36 -163.52,568.68 -298.95,759.82 -40.71,92.6 -67.5,111.33 -131.67,181.4 -83.25,90.92 -72.99,97.46 -182.78,153.45 -173.98,303.55 -965.42,483.27 -1422.89,360.02 -175.96,-29.81 -291.55,-64.81 -425.01,-138.69 -118.6,-65.65 -208.67,-124.86 -281.84,-230.31 -118.43,-24.23 -216.92,-164.05 -314.01,-303.46 -76.1,-109.28 -44.21,-52.08 -54.41,-150.15 -79.03,-57.69 -74.58,-62.01 -120.98,-169.37 -41.85,-96.84 -49.82,-137.75 -70.26,-243.17 -141.75,-360.6 -66.77,-883.64 94.61,-1205.82 264.49,-528.02 662.58,-676.95 690.44,-805.19 8.5,-39.13 -17.61,-5250.34 16.5,-6207.84 14.73,-413.52 46.27,-596.56 301.21,-765.77 201.56,-133.78 540.99,-221.34 799.1,-108.08zm-1312.09 -172.06c-49.54,97.33 -79.46,167.18 -185.37,230.97 -18.48,109.68 -114.91,272.8 -156.57,394.89 -77.24,226.34 -41.44,3562.89 -40.09,3876.23 3.19,740.37 -11.16,1483.07 -3.45,2223.35 5.07,486.74 -58.98,258.51 -391.3,731.54 -224.16,319.08 -292.45,629.55 -348.79,714.17 -19.47,121.88 -16.51,194.64 -80.31,275.71 41.87,297.39 -9.26,609.37 50.5,923.56l106.83 352.6 -16.22 1.21c82.85,78.74 103.34,152.86 171.71,263.42 63.48,102.67 98.99,149.32 157.71,264.54 73.72,20.12 111.89,128.04 288.86,277.11 228.13,192.17 442.12,331.46 726.66,437.08 138.61,51.45 322.41,78.85 437.67,132.65l620.8 0c123.04,-58 329.15,-85.61 468.66,-141.29 169.06,-67.49 288.07,-160.62 447.99,-208.83 42.18,-78.65 76.15,-75.6 153.27,-140.6 82.55,-69.56 92.64,-91.21 179.99,-122.46 51.6,-98.55 89.58,-129.79 168.24,-198.95 56.86,-119.15 189.9,-250.73 281.12,-422.97 435,-821.37 149.24,-1472.99 159.35,-1740.03 -67.39,-67 -195.37,-486.46 -512.83,-867.91l-215.28 -229.39c-1.04,-1.74 -75.47,-5930.91 -19.74,-6149.57l-49.19 -181.01c-51.88,-300.54 -89.79,-224.8 -133.15,-418.14 -88.39,-66.22 -162.53,-191.9 -190.64,-272 -83.74,-47.44 -127.14,-88.07 -212.66,-148.37 -25.36,-17.89 -67.69,-43.45 -103.6,-71.15 -84.23,-64.99 -33.44,-5.02 -92.97,-97.67l-179.07 -61.41c-112.2,-21.97 -159.07,-13.13 -240.43,-77.15 -309.81,57.39 -436.91,-21.45 -744.62,121.9 -195.52,91.09 -360.19,267.2 -503.08,327.97z"/>
    <path class="fil0" d="M3766.17 10956.82c65.94,-123.29 146.21,-191.93 309.53,-240.72 446.5,-32.83 637.15,70.52 722.16,463.68 11.13,179.99 6.97,301.47 -108.26,418.02 -108.62,229.68 -519.34,318.82 -792.92,131.61 -198.6,-135.9 -319.68,-506.11 -130.51,-772.59zm252.01 -7784.92l-75.67 255.32 12.46 6694.23c-25.83,121.63 -172.88,97.14 -357.37,246.29 -605.9,489.84 -422.31,766.79 -468.61,1192.13l136.45 235.98c196.63,336.68 351.83,328.55 471.5,493.16 120.76,10.58 179.26,63.79 325.55,77.46 147.49,13.77 269.53,-12.41 405.25,21.35 36.2,-26.61 -9.2,-4.09 74.67,-45.97 10.48,-5.23 43.98,-20 55.34,-24.59 63.05,-25.45 66.31,-21.44 129.3,-40.49 61.53,-70.15 189.7,-146.1 253.75,-159.81l266.87 -356.55c3.2,-13.05 14.28,-13.05 21.8,-19.14 20.95,-311.63 356.74,-1154.22 -757.77,-1570.92 0,-1203.99 0,-2407.97 0,-3611.96 0,-864.06 29.59,-2306.37 2.58,-3142.36 -7.78,-240.83 -63.85,-157.1 -104.73,-278.43l-159.7 -35.84c-182.96,19.09 -121.48,51.24 -231.67,70.14z"/>
   </g>
   <g>
    <path class="fil0" d="M-0 4988.92l0 140.33c78.8,112.19 91.5,176.04 271.43,204.48 128.09,20.25 296.15,18.56 433.99,20.35 270.94,3.53 706.86,-46.99 944.08,13.47 8.49,-5.24 22.37,-20.61 27.13,-12.63l281.2 -126.46c9.35,-462.76 -30.3,-456.37 -828.8,-455.75 -608.16,0.48 -875.34,-86.58 -1129.03,216.21z"/>
    <path class="fil0" d="M29.97 9697.94c163.42,163.69 160.44,137.48 428.82,143.78l1269.24 -7.44c124.14,-16.38 105.73,-16.99 199.9,-117.47 54.34,-57.99 3.04,-12.53 58.36,-61.94 -96.08,-445.8 -239.67,-367.63 -716.29,-366.58 -356.32,0.78 -738.28,-11.26 -1091.03,4.38 -21.32,50.85 9.62,-0.51 -38.7,53.49 -11.9,13.29 -59.89,57.73 -67.22,68.31 -76.72,110.83 -55.26,147.18 -43.08,283.47z"/>
    <path class="fil0" d="M-0 2757.75l0 118.68c90.93,105.37 99.33,175.57 282.4,195.19l1446.03 -3.23c368.01,-64.64 256.58,-415.9 81.68,-510.02 -126.76,-68.21 -1444.32,-33.81 -1645.97,-30.18 -51.02,70.99 -103.07,146.41 -164.14,229.56z"/>
    <path class="fil0" d="M29.35 7440.16c66.3,68.8 99.55,63.75 111.94,139.78 365.57,49.32 854.09,15.02 1234.57,17.39 348.74,2.16 733.43,19.5 504.48,-516.41 -343.53,-54.35 -1450.21,-57.36 -1781.14,3.98 -56.01,122.1 -85.49,183.2 -69.85,355.26z"/>
    <path class="fil0" d="M548.82 8510.47c197.07,153.62 12.83,228.76 721.18,228.63 704.65,-0.12 539.75,-71.46 721.18,-224.06 -44.97,-199.02 -48.9,-284.97 -232.11,-331.03 -128.4,-32.28 -350.07,-30.12 -489.07,-29.81 -431.61,0.97 -629.99,-51.12 -721.18,356.27z"/>
    <path class="fil0" d="M1137.44 4238.66c197.26,-63.49 529.78,48.67 686.05,-55.74 37.58,-25.12 131.79,-140.7 141.47,-207.96 15.77,-109.59 -54.1,-199.62 -73.42,-276.72l-287.52 -32.04 -174.15 0 -704.97 -0.59c-191.28,245.5 -213.39,225.07 -25.98,531.83 129.23,5.51 326.64,-18.09 438.52,41.22z"/>
    <path class="fil0" d="M605.87 6276.35c159.88,269.68 320.33,182.31 699.41,182.83 123.67,0.17 305.65,10.12 423.02,-6.58 178.91,-25.45 172.57,-103.81 257.99,-184.4 -95.47,-446.59 -254.44,-359.35 -716.29,-357.3 -296.7,1.31 -816.08,-41.68 -664.13,365.45z"/>
   </g>
   <g>
    <path class="fil0" d="M10617.22 3559.96c-43.34,133.74 7.08,67.48 -87.33,130.31 -27.43,133.78 -164.28,241.59 -270.51,322.19 -244.85,185.77 -627.12,241.27 -936.41,173.34 -115.77,-25.43 -352.27,-86.19 -397.87,-201.18 -128.5,-77.59 -227.47,-157.6 -283.2,-318.83 -165.24,-99.55 -179.49,-582.77 -138.63,-811.74 15.25,-99.52 1.38,-61.75 32.53,-145 21.73,-58.08 22.17,-42.99 47.44,-74.45 5.87,-121.95 80.75,-219.13 150.5,-290.86 37.8,-38.86 81.94,-83.22 104.95,-104.96 94.58,-89.38 9.21,-53.84 132.48,-71.39 69.87,-112.93 66.74,-87.25 200.88,-121.23 163.6,-107.71 770.71,-103.45 917.57,35.34 260.41,92.42 441.31,267 527.6,525.61 138.81,195.78 164.29,769.52 0,952.85zm-1621.21 -2049.67l-217.15 106.87c-48.18,52.03 -81.73,72.94 -130.19,113.1 -96.21,79.73 -47.27,55.11 -168.54,98.26 -58.28,122.14 -203.78,234.53 -302.26,383.9 -113.29,171.85 -128.63,265.56 -208.41,430.32l-51 237.74c-2.39,6.97 -10.26,31.74 -12.09,26.82 -1.8,-4.86 -7.67,17.81 -12.75,26.04 67.44,240.52 22.87,467.55 122.67,724.99 84.64,218.36 191.84,373.94 323.56,521.21 229.49,256.61 582,531.77 1079.49,582.18l583.03 -42.84c445.88,-90.59 816.29,-456.42 1008.99,-731.36 132.56,-189.13 214.08,-376.98 251.74,-629.94 52.84,-354.85 -42.76,-524.54 -34.03,-777.61l-223.61 -396.54c-101.63,-156.96 -174.51,-200.27 -283.91,-314.57 -360,-376.12 -557.77,-282.54 -731.6,-438.82 -93.33,7.38 -576.52,-17.16 -672.63,-32.94 -40.5,29.81 -0.39,8.3 -74.27,41.39 -17.9,8.02 -60.31,23.04 -81.1,29.5 -67.9,21.1 -102.83,26.85 -165.94,42.3z"/>
    <path class="fil0" d="M11650.79 2878.89l-56.63 116.62c-5.84,157.72 36.91,240.99 80.13,335.5 104.82,7.68 -6.03,-27.18 108.66,21.59 172.85,6.77 358.94,20.58 530.77,13.15 216.04,-9.33 282.16,-64.88 386.28,-180.57l0 -176.77 -143.7 -188.7 -350.37 -2.71c-263.55,1.69 -367.5,-29.65 -555.14,61.89z"/>
    <path class="fil0" d="M6518.67 3206.83c80.35,92.28 54.74,117.47 219.58,145.78 101.96,17.51 314.57,16.81 423.7,15.75 430.21,-4.18 368.39,-36.6 466.65,-356.5 -32.69,-29.57 -32.03,-20.57 -80.83,-83.24 -34.49,-44.29 -16.15,-21.86 -38.4,-67.79 -126.35,-76.81 -405.63,-41.42 -595.1,-43.83 -331.02,1.63 -416.37,34.41 -395.6,389.83z"/>
    <path class="fil0" d="M9525.18 6174.82c398.5,-4.82 355.8,-196.53 350.3,-569.2 -5.45,-369.44 25.6,-531.15 -385.58,-528.29 -198.18,193.84 -163.73,233.65 -163.62,564.07 0.1,293.66 -23.12,411.66 198.9,533.42z"/>
    <path class="fil0" d="M9307.21 230.22c32.24,96.94 40.57,653.66 60.44,788.09 101.45,46.89 180.68,81.57 333.56,76.52 229.61,-130.85 183.74,-272.67 177.48,-604.91 -5.62,-298.34 -25.1,-503.33 -353.69,-483.96 -235.64,113.84 -169.21,260.02 -201.02,197.25 -3.01,-5.94 -10.59,18.41 -16.77,27.01z"/>
    <path class="fil0" d="M7405.01 4580.5l-194.88 168.11c-58.03,192.18 -224.08,192.57 -82.09,500.37 107.45,54.05 191.2,83.53 350.67,69.2 34.93,-64.85 718.74,-522.52 280.5,-770.59 -128.3,-72.63 -249.85,-9.67 -354.2,32.91z"/>
    <path class="fil0" d="M7042.48 1161.93l144.71 185.11c62.41,80.14 92.72,103.38 139.97,188.45 75.47,29.73 96.29,49.66 163.02,110.74 288.41,46.32 500.33,-116.66 374.97,-376.05 -103.64,-214.43 -308.84,-277.5 -424.49,-439.86 -312.44,39.7 -303.47,38.89 -398.18,331.61z"/>
    <path class="fil0" d="M11315.03 4900.16c93.13,72.52 498.27,710.68 763.57,329.43 200,-287.42 -256.1,-590.38 -401.83,-716.71 -289.71,-1.26 -390.05,84.92 -361.74,387.28z"/>
    <path class="fil0" d="M11641.84 912.8c-11.51,68.27 -19.3,61.23 -84.79,128.48 -75.65,77.68 -44.74,74.62 -128.2,84.51 -90.33,153.57 -139.37,199.19 -99.2,422.98 65.2,31.18 101.64,93.11 283.08,154.37l240.43 -153.04c35.34,-209.61 353.86,-159.8 249.46,-570.9 -203.25,-158.29 -213.02,-186.63 -460.78,-66.4z"/>
   </g>
  </g>
 </g>
</svg>
