<?xml version="1.0" encoding="UTF-8"?>
<svg xmlns="http://www.w3.org/2000/svg" viewBox="0 0 64 64" width="512" height="512"><g id="Layer_50" data-name="Layer 50"><path d="M32,37A14,14,0,1,1,46,23,14.015,14.015,0,0,1,32,37Zm0-26A12,12,0,1,0,44,23,12.013,12.013,0,0,0,32,11Z"/><path d="M32,62.426a2.992,2.992,0,0,1-2.5-1.342C23.941,52.7,11,32.2,11,23a21,21,0,0,1,42,0c0,9.2-12.941,29.7-18.505,38.084A2.989,2.989,0,0,1,32,62.426ZM32,4A19.021,19.021,0,0,0,13,23c0,8.9,13.908,30.555,18.171,36.979a1.02,1.02,0,0,0,1.658,0C37.092,53.555,51,31.9,51,23A19.021,19.021,0,0,0,32,4Z"/><path d="M25,28a3,3,0,0,1-3-3,1,1,0,0,1,2,0,1,1,0,1,0,1-1,3,3,0,1,1,3-3,1,1,0,0,1-2,0,1,1,0,1,0-1,1,3,3,0,0,1,0,6Z"/><path d="M39,28a3,3,0,0,1-3-3,1,1,0,0,1,2,0,1,1,0,1,0,1-1,3,3,0,1,1,3-3,1,1,0,0,1-2,0,1,1,0,1,0-1,1,3,3,0,0,1,0,6Z"/><path d="M32,28a3,3,0,0,1-3-3V21a3,3,0,0,1,6,0v4A3,3,0,0,1,32,28Zm0-8a1,1,0,0,0-1,1v4a1,1,0,0,0,2,0V21A1,1,0,0,0,32,20Z"/></g></svg>
