<?xml version="1.0" encoding="UTF-8"?>
<!DOCTYPE svg PUBLIC "-//W3C//DTD SVG 1.1//EN" "http://www.w3.org/Graphics/SVG/1.1/DTD/svg11.dtd">
<!-- Creator: CorelDRAW 2020 (64-Bit) -->
<svg xmlns="http://www.w3.org/2000/svg" xml:space="preserve" width="152.648mm" height="115.951mm" version="1.1" style="shape-rendering:geometricPrecision; text-rendering:geometricPrecision; image-rendering:optimizeQuality; fill-rule:evenodd; clip-rule:evenodd"
viewBox="0 0 15264.8 11595.1"
 xmlns:xlink="http://www.w3.org/1999/xlink"
 xmlns:xodm="http://www.corel.com/coreldraw/odm/2003">
 <defs>
  <style type="text/css">
   <![CDATA[
    .fil0 {fill:black}
   ]]>
  </style>
 </defs>
 <g id="Слой_x0020_1">
  <metadata id="CorelCorpID_0Corel-Layer"/>
  <g id="_2098712904960">
   <path class="fil0" d="M13818.42 8170.8c-159.55,-67.86 -85.2,-66.45 -211.67,-140.93 -73.62,109.94 -264.36,215.07 -282.39,352.78 -8.63,140.26 110.79,219.26 196.9,546.11 60.04,227.86 67.21,503 19.56,728.51 -229.37,1085.49 -1404.48,1704.18 -2439.85,1160.22 -1035.99,-544.28 -1265.17,-1996.36 -236.8,-2813.82 85.89,-68.28 146.96,-97.39 165.82,-222.56l1.49 -5643.08c0,-275.4 -2.6,-491.15 28.18,-747.23 23.46,-195.13 5.49,-177.84 75.65,-312.96 281.41,-541.92 928.72,-630.5 1317.74,-255.1 350.09,337.81 271.76,678.58 271.76,1320l0 4828.97 219.99 238.31c85.51,86.44 108.9,128.62 217.38,180.17l143.66 -162.84c3.04,-13.56 12.04,-15.64 18.69,-22.91 0,-630.32 0,-1260.64 0,-1890.96 0,-675.09 -35.28,-1257.9 -35.28,-1901.91 0.01,-635.52 -2.39,-1271.5 0.11,-1906.97 2.22,-563.21 -187.27,-1008.99 -658.16,-1283.34 -609.23,-354.95 -1243.41,-267.12 -1750.34,216.4 -290.25,276.84 -417.05,626.34 -414.3,1064.73l1.03 5756.42c2.99,297.39 35.33,285.04 -166.88,467.87 -7.69,6.96 -29.27,26.23 -36.75,33.04 -159.27,145.15 -214.22,222.96 -324.97,417.61 -3.93,6.92 -8.86,15.93 -12.69,22.83l-150.6 302.51c-581.64,1444.86 474.05,3233.67 2348.98,3088.87 676.11,-52.21 1175.69,-404.19 1542.04,-855.87 450.76,-555.75 610.97,-1401.55 377.45,-2082.87 -43.99,-128.36 -135.82,-412.42 -225.75,-482z"/>
   <path class="fil0" d="M1047.87 4114.04c-536.57,0 -458.61,74.28 -458.61,-388.06 0,-596.32 679.97,-493.89 1270,-493.89 0,325.85 23.74,263.12 -165.77,398.81 -97.09,69.51 -587.3,483.14 -645.62,483.14zm-670.28 3487.82l312.21 287.61c86.24,-64.7 300.13,-250.58 322.96,-353.49 42.45,-126.64 -62.4,-351.92 -71.89,-668.21 -21.84,-728.2 -39.44,-1465.05 346.14,-2055.35 124.4,-190.44 219.81,-279.08 368.11,-408.53 255.44,-222.96 204.47,-192.09 525.9,-82.61 698.5,237.9 702.52,180.81 1406.61,180.81 555.84,0 1003.11,35.28 1558.94,35.28l4756.02 0 0 -564.45 -5750.44 -35.27c-690.89,0 -1287.65,52.04 -1763.73,-176.39 0,-600.31 276.26,-1367.93 735.34,-1734.45 591.28,-472.07 893.98,-593.9 1910.49,-593.89 564.49,0.01 3847.83,-44.71 4330.02,44.43 163.98,30.32 342.86,118.63 503.04,131.96 17.96,-215.84 158.09,-309.3 176.39,-529.16 -553.01,-292.62 -1454.49,-211.67 -2293.06,-211.67 -559.03,0 -3263.71,-45.93 -3689.51,49.93 -411.92,92.73 -597.77,175.32 -903.53,366.47 -399.06,249.49 -676.95,551.22 -917.43,952.29 -143.32,239.01 -196.8,299.47 -169.42,465.58 -234.97,-65.47 -933.47,-63.03 -1190.6,-27.38 -156.42,21.68 -277.17,85.67 -409.12,161.75 -589.16,339.66 -566.67,1407.57 -255.05,1685.47 123.39,110.04 223.42,155.89 443.83,155.89 -43.39,186.26 -154.11,371.76 -203.54,575.98 -131.58,543.59 -78.68,1761.05 -78.68,2347.4z"/>
   <path class="fil0" d="M11878.14 8770.7c465.13,0 745.28,579.88 438.22,924.87 -502.2,564.23 -1357.06,-202.46 -819.74,-741.95 90.68,-91.04 241.97,-182.92 381.52,-182.92zm-282.22 -529.16c-1030.43,240.06 -1136.91,1669.91 -230.75,2105.95 802.78,386.29 1641.86,-232.89 1641.86,-871.23 0,-308.58 20.8,-486.77 -160.45,-751.3 -129.93,-189.63 -402.82,-461.16 -686.21,-483.42l0 -5115.28 -564.45 0 0 5115.28z"/>
   <path class="fil0" d="M4822.59 5595.7c0,336.04 109.28,699.9 167.57,999.88 64.82,333.59 79.95,764.01 396.87,764.01l3668.89 0 0 -564.44 -3421.94 0c-64.21,-275.59 -112.19,-571.08 -176.39,-846.67l3598.33 0 0 -564.44 -4021.67 0c-84.94,0 -211.66,126.72 -211.66,211.66z"/>
   <path class="fil0" d="M1365.19 8594.31c222.78,249.52 1438.97,176.39 1763.56,176.39 1975.72,0 3951.45,0 5927.17,0l0 -564.44c-333.56,0 -6759.21,27.5 -7034.82,-18.77 -344.22,-57.8 -250.08,-105.16 -408.79,-51.96l-337.63 339.32 90.51 119.46z"/>
   <path class="fil0" d="M3869.91 9753.8l5186.01 4.74 0 -564.5 282.22 0 -5851.43 0c-68.68,111.39 -149.24,159.11 -228.22,265.66l421.78 411.2c103.92,-67.15 32.64,-56.36 189.64,-117.1z"/>
   <path class="fil0" d="M1859.26 6080.23l317.5 317.5 282.22 -237.41c101.27,-53.7 153.56,-174.07 330.27,-198.53 142.82,-19.77 321.52,79.53 392.56,181.17 206.1,294.9 -3.88,654.94 -318.4,687.46 -52.06,101.16 -19.88,60.93 -105.83,134.1l371.68 395.07c312.67,-72.84 585.67,-363.69 672.37,-668.18 259.21,-910.28 -715.82,-1656.37 -1505.11,-1149.05 -6.74,4.33 -15.2,10.24 -21.84,14.62 -335.61,220.99 -242.08,247.25 -415.42,523.25z"/>
   <path class="fil0" d="M1823.98 9864.31c0,416.82 -84.37,1085.43 68.03,1378.33 212.74,408.87 510.6,350.28 1096.13,350.28l122.94 -149.72c-132.42,-112.66 -302.91,-252.79 -386.26,-414.72 -445.68,0 -332.09,-3 -336.53,-877.64l6.21 -314.93c16.55,-92.25 0.49,-33.77 24.52,-77.43l-237.73 -233.01 -357.31 338.84z"/>
   <path class="fil0" d="M412.87 8281.49c0,591.51 557.37,1191.96 1114.06,1385.76 109.46,38.11 208.92,44.9 297.05,74.85l288.47 -287.98 -197.41 -209.26c-5.72,-5.97 -13.01,-13.56 -18.53,-19.56l-37.21 -43.57c-4.47,-5.17 -12.95,-14.97 -18.77,-22.97 -94.16,-65 -139.15,-36.24 -262.31,-102.38 -71.53,-38.42 -161.19,-111.03 -222.5,-170.23 -136.06,-131.41 -259.79,-232.72 -307.85,-468.23 -45.72,-27.72 -48.19,-4.85 -4.68,-35.27l-353.25 -353.37 -277.07 252.21z"/>
   <polygon class="fil0" points="13853.7,3796.54 15264.81,3796.54 15264.81,3196.81 13853.7,3196.81 "/>
   <polygon class="fil0" points="13853.7,1538.76 15264.81,1538.76 15264.81,939.04 13853.7,939.04 "/>
   <polygon class="fil0" points="13853.7,6054.31 15264.81,6054.31 15264.81,5454.59 13853.7,5454.59 "/>
   <path class="fil0" d="M13853.7 4925.42c1076.18,0 846.66,188.65 846.66,-599.72l-842.25 0 -4.41 599.72z"/>
   <polygon class="fil0" points="13853.7,7183.2 14700.36,7183.2 14700.36,6583.48 13853.7,6583.48 "/>
   <path class="fil0" d="M1915.77 6830.42c84.12,-134.6 169.23,-237.73 304.81,-283.72l393.55 375.52c-43.87,117.45 -177.81,280.92 -296.26,296.44 69.62,115.49 -60.08,16.32 98.81,105.65l257.1 -274.47c81.76,73.57 272.78,259.91 335.6,345.03 79.53,-11.99 68.31,-5.89 119.88,-35.28l-371.68 -395.07c85.95,-73.17 53.77,-32.94 105.83,-134.1 -181.04,-3.4 -317.4,-69.87 -391.99,-189.04 -113.63,-181.5 -66.96,-302.51 -12.44,-481.06l-282.22 237.41 -317.5 -317.5c-65.22,315.46 -54.02,494.94 56.51,750.19z"/>
   <path class="fil0" d="M2534.21 9758.48l296.44 0c65.25,-126.75 178.37,-222.07 282.22,-310.48l-230.56 -253.96 -388.05 0 -244.47 253.63 284.42 310.81z"/>
   <path class="fil0" d="M377.59 7601.86l7.01 598.33c22.78,113.41 -2.73,28.33 28.27,81.3l277.07 -252.21 353.25 353.37 4.68 35.27c122.98,82.36 159.63,123.94 317.32,176.39l-90.51 -119.46 337.63 -339.32c-27.5,-90.45 51.03,-70.38 -70.55,-70.38l-344.34 323.75 -433.34 -423.35 323.74 -359.01c-10.15,-123 16.15,-42.83 -75.06,-70.56 -22.83,102.91 -236.72,288.79 -322.96,353.49l-312.21 -287.61z"/>
   <path class="fil0" d="M2830.65 9758.48l126.9 0 234.83 -245.11 417.24 425.66 -339.25 343.94 0 126.89c161.92,-83.35 302.05,-253.84 416.31,-388.06l148.13 124.74c0,-166.39 -19.93,-242.94 35.1,-392.74 -157,60.74 -85.72,49.95 -189.64,117.1l-421.78 -411.2c78.98,-106.55 159.54,-154.27 228.22,-265.66l-604.4 0 230.56 253.96c-103.85,88.41 -216.97,183.73 -282.22,310.48z"/>
   <path class="fil0" d="M12724.81 7140.9l328.44 313.63 -328.44 314.35c79.05,197.11 -3.22,54.24 105.66,119.88 18.03,-137.71 208.77,-242.84 282.39,-352.78l443.62 421.94 -337.78 319.07c36.18,111.17 -5.52,69.48 105.66,105.66 18.03,-137.71 208.77,-242.84 282.39,-352.78 126.47,74.48 52.12,73.07 211.67,140.93 -42.65,-104.76 -6.72,-27.29 -41.66,-92.29 -75.26,-139.98 -316.05,-435.61 -452.23,-471.97l0 -402.1c-6.65,7.27 -15.65,9.35 -18.69,22.91l-143.66 162.84c-108.48,-51.55 -131.87,-93.73 -217.38,-180.17l-219.99 -238.31 0 169.19z"/>
   <path class="fil0" d="M3270.37 10409.86l0 84.77 416.12 390.7 148.32 -139.07 0 -599.72 -148.13 -124.74c-114.26,134.22 -254.39,304.71 -416.31,388.06z"/>
   <path class="fil0" d="M1541.76 8065.15c-46.22,-63.08 -162.93,-144.17 -238.73,-219.9 -76.71,-76.63 -154.17,-189.62 -215.21,-238.71l-323.74 359.01 433.34 423.35 344.34 -323.75z"/>
   <path class="fil0" d="M12830.47 7888.76c2.42,97.84 42.79,66 185.95,202.28 73.54,70.01 117.3,140.89 202.28,185.95l337.78 -319.07 -443.62 -421.94c-73.62,109.94 -264.36,215.07 -282.39,352.78z"/>
   <path class="fil0" d="M1915.77 6830.42c46.43,100.34 96.83,166.51 163.28,239.1 11.72,12.8 100.85,106.34 104.6,109.33 137.62,109.51 10.98,67.21 134.22,39.81 118.45,-15.52 252.39,-178.99 296.26,-296.44l-393.55 -375.52c-135.58,45.99 -220.69,149.12 -304.81,283.72z"/>
   <path class="fil0" d="M3270.37 10609.83l340.16 344.8 -442.21 413.51 -321.29 -339.66 -122.21 0c83.35,161.93 253.84,302.06 386.26,414.72l-122.94 149.72c52.11,0 173.11,8.63 214.23,5.11 249.91,-21.42 110.01,20.81 173.83,-75.49 -93.69,-12.27 -74.54,-21.93 -124.73,-77.75l429.21 -422.45c57.59,41.17 63.83,22.17 83.75,111.97 110.39,-46.22 58.7,21.95 75.49,-173.83 3.52,-41.12 -5.11,-162.12 -5.11,-214.22l-148.32 139.07 -416.12 -390.7 0 115.2z"/>
   <path class="fil0" d="M2847.03 11028.48l321.29 339.66 442.21 -413.51 -340.16 -344.8c0,163.5 19.98,268.19 -35.28,383.37 -115.37,55.36 -224.07,35.28 -388.06,35.28z"/>
   <path class="fil0" d="M14382.69 2667.65l317.67 0 0 -599.73 -70.73 0c-7.59,8.37 -18.19,17.44 -24.57,23.33l-108.2 95.61c-44.63,39.34 -63.12,58.93 -105.49,101.19 -75.76,75.55 -130.23,119.71 -182.55,203.21l150.32 152.2c4.3,-7 16.37,15.52 23.55,24.19z"/>
   <path class="fil0" d="M13853.7 2169.08l0 498.57 528.99 0c-7.18,-8.67 -19.25,-31.19 -23.55,-24.19l-150.32 -152.2c52.32,-83.5 106.79,-127.66 182.55,-203.21 42.37,-42.26 60.86,-61.85 105.49,-101.19l108.2 -95.61c6.38,-5.89 16.98,-14.96 24.57,-23.33l-169.19 0 -325.69 341.09 -281.05 -239.93z"/>
   <path class="fil0" d="M1823.98 9742.1l0 122.21 357.31 -338.84 237.73 233.01 115.19 0 -284.42 -310.81 244.47 -253.63c-103.88,0 -215.57,4.18 -318.29,1.15 -175.82,-5.18 -167.91,-33.35 -335.44,-36.43 5.82,8 14.3,17.8 18.77,22.97l37.21 43.57c5.52,6 12.81,13.59 18.53,19.56l197.41 209.26 -288.47 287.98z"/>
   <polygon class="fil0" points="2957.55,9758.48 3268.16,9758.48 3270.37,10282.97 3609.62,9939.03 3192.38,9513.37 "/>
   <path class="fil0" d="M3376.2 11522.54c218.82,53.24 284.44,-180.63 423.33,-282.39l-35.1 -105.84c-19.92,-89.8 -26.16,-70.8 -83.75,-111.97l-429.21 422.45c50.19,55.82 31.04,65.48 124.73,77.75z"/>
   <polygon class="fil0" points="13853.7,2169.08 14134.75,2409.01 14460.44,2067.92 13853.7,2067.92 "/>
   <path class="fil0" d="M2416.68 7324.31c213.01,91.73 300.59,70.56 592.7,70.56 -62.82,-85.12 -253.84,-271.46 -335.6,-345.03l-257.1 274.47z"/>
   <polygon class="fil0" points="12724.81,7768.88 13053.25,7454.53 12724.81,7140.9 "/>
  </g>
 </g>
</svg>
